<?xml version="1.0" encoding="UTF-8"?>
<svg xmlns="http://www.w3.org/2000/svg" viewBox="0 0 421.04 173.01" aria-hidden="true" fill="currentColor" class="hub-hero-icon">
  <path d="M87.39,45.33c0,21.03,50.51,44.46,123,44.46s123-23.43,123-44.46S282.87.87,210.39.87s-123,23.43-123,44.46Z"></path>
  <path d="M25.79,116h367c11.44,0,18.11-2.01,23.05-6.95,6.19-6.19,6.93-17.18,1.79-26.73l-28.97-54.94C375.65,4.75,344.58,0,320.79,0h-22.52c2.26.78,4.48,1.59,6.62,2.43,27.41,10.85,42.5,26.08,42.5,42.9s-15.09,32.05-42.5,42.9c-25.35,10.04-58.92,15.56-94.5,15.56s-69.15-5.53-94.5-15.56c-27.41-10.85-42.5-26.08-42.5-42.9S88.48,13.28,115.89,2.43c2.14-.85,4.36-1.65,6.62-2.43h-19.72c-23.82,0-54.95,4.77-67.92,27.47L1.18,85.93c-2.61,7.76-.85,15.91,4.88,22.46,5.4,6.3,13.71,7.61,19.73,7.61Z"></path>
  <path d="M25.79,130c-7.42,0-14.04-1.44-19.67-4.22,5.85,12.19,14.63,22.79,26.26,31.66,9.25,7.11,24.67,15.57,45.76,15.57h264c14.9,0,28.65-4.5,42.02-13.76,12.95-9.01,22.84-19.89,29.61-32.48-6.92,2.72-14.25,3.23-20.98,3.23H25.79Z"></path>
</svg>
